<svg xmlns="http://www.w3.org/2000/svg" xmlns:xlink="http://www.w3.org/1999/xlink" width="224" zoomAndPan="magnify" viewBox="0 0 168 167.999997" height="224" preserveAspectRatio="xMidYMid meet" version="1.0"><defs><g/><clipPath id="id1"><path d="M 5.007812 8.402344 L 156.03125 8.402344 L 156.03125 159.425781 L 5.007812 159.425781 Z M 5.007812 8.402344 " clip-rule="nonzero"/></clipPath><clipPath id="id2"><path d="M 125 78.535156 L 147 78.535156 L 147 100 L 125 100 Z M 125 78.535156 " clip-rule="nonzero"/></clipPath><clipPath id="id3"><path d="M 124 78.535156 L 147.042969 78.535156 L 147.042969 100 L 124 100 Z M 124 78.535156 " clip-rule="nonzero"/></clipPath><clipPath id="id4"><path d="M 127 131 L 147 131 L 147 146.875 L 127 146.875 Z M 127 131 " clip-rule="nonzero"/></clipPath></defs><rect x="-16.8" width="201.6" fill="#ffffff" y="-16.8" height="201.599996" fill-opacity="1"/><rect x="-16.8" width="201.6" fill="#ffffff" y="-16.8" height="201.599996" fill-opacity="1"/><rect x="-16.8" width="201.6" fill="#ffffff" y="-16.8" height="201.599996" fill-opacity="1"/><rect x="-16.8" width="201.6" fill="#ffffff" y="-16.8" height="201.599996" fill-opacity="1"/><g clip-path="url(#id1)"><path fill="#000000" d="M 80.519531 8.402344 C 38.90625 8.402344 5.007812 42.300781 5.007812 83.914062 C 5.007812 125.53125 38.90625 159.425781 80.519531 159.425781 C 122.136719 159.425781 156.03125 125.53125 156.03125 83.914062 C 156.03125 42.300781 122.136719 8.402344 80.519531 8.402344 Z M 80.519531 152.714844 C 42.597656 152.714844 11.71875 121.839844 11.71875 83.914062 C 11.71875 45.992188 42.597656 15.117188 80.519531 15.117188 C 118.441406 15.117188 149.320312 45.992188 149.320312 83.914062 C 149.320312 121.839844 118.441406 152.714844 80.519531 152.714844 Z M 80.519531 152.714844 " fill-opacity="1" fill-rule="nonzero"/></g><path fill="#000000" d="M 80.519531 50.355469 C 62.0625 50.355469 46.960938 65.457031 46.960938 83.914062 C 46.960938 102.375 62.0625 117.476562 80.519531 117.476562 C 98.976562 117.476562 114.082031 102.375 114.082031 83.914062 C 114.082031 65.457031 98.976562 50.355469 80.519531 50.355469 Z M 80.519531 110.765625 C 65.753906 110.765625 53.671875 98.683594 53.671875 83.914062 C 53.671875 69.148438 65.753906 57.066406 80.519531 57.066406 C 95.285156 57.066406 107.367188 69.148438 107.367188 83.914062 C 107.367188 98.683594 95.285156 110.765625 80.519531 110.765625 Z M 80.519531 110.765625 " fill-opacity="1" fill-rule="nonzero"/><path fill="#ffffff" d="M 120.898438 63.210938 C 97.601562 63.210938 78.714844 82.097656 78.714844 105.394531 C 78.714844 128.695312 97.601562 147.582031 120.898438 147.582031 C 144.199219 147.582031 163.085938 128.695312 163.085938 105.394531 C 163.085938 82.097656 144.199219 63.210938 120.898438 63.210938 " fill-opacity="1" fill-rule="nonzero"/><g clip-path="url(#id2)"><path fill="#000000" d="M 125.839844 87.734375 L 146.132812 78.667969 L 143.878906 99.070312 L 143.878906 80.933594 Z M 125.839844 87.734375 " fill-opacity="1" fill-rule="evenodd"/></g><g clip-path="url(#id3)"><path stroke-linecap="butt" transform="matrix(0.127266, 0, 0, 0.127953, 80.746614, 70.960784)" fill="none" stroke-linejoin="miter" d="M 354.322502 131.091355 L 513.775607 60.234288 L 496.065416 219.685585 L 496.065416 77.940922 Z M 354.322502 131.091355 " stroke="#000000" stroke-width="1.25" stroke-opacity="1" stroke-miterlimit="4"/></g><path stroke-linecap="butt" transform="matrix(0.127266, 0, 0, 0.127953, 80.746614, 70.960784)" fill-opacity="1" fill="#000000" fill-rule="evenodd" stroke-linejoin="miter" d="M 478.355225 113.38472 L 477.925515 473.34839 L 461.38168 473.623149 L 460.645034 140.402602 L 230.320472 219.685585 L 230.320472 201.978951 Z M 478.355225 113.38472 " stroke="#000000" stroke-width="1.25" stroke-opacity="1" stroke-miterlimit="4"/><path stroke-linecap="butt" transform="matrix(0.127266, 0, 0, 0.127953, 80.746614, 70.960784)" fill-opacity="1" fill="#000000" fill-rule="evenodd" stroke-linejoin="miter" d="M 230.320472 219.685585 L 230.320472 361.430248 L 254.783248 361.430248 L 255.519894 210.221694 Z M 230.320472 219.685585 " stroke="#000000" stroke-width="1.25" stroke-opacity="1" stroke-miterlimit="4"/><path stroke-linecap="butt" transform="matrix(0.153623, -0.0733084, 0.0900789, 0.15641, 43.330396, 73.836032)" fill-opacity="1" fill="#000000" fill-rule="evenodd" stroke-linejoin="miter" d="M 231.048401 376.140329 C 231.061347 374.123472 230.683208 372.123111 229.97382 370.167291 C 229.255974 368.182533 228.183906 366.281497 226.78059 364.425003 C 225.377273 362.568508 223.639681 360.805085 221.587758 359.144081 C 219.547322 357.463486 217.22096 355.923599 214.600214 354.495479 C 211.999414 353.076708 209.15258 351.817341 206.102633 350.687546 C 203.041198 349.57734 199.805054 348.634994 196.394201 347.860507 C 192.983348 347.08602 189.47757 346.516785 185.868408 346.123865 C 182.239299 345.721596 178.58659 345.533036 174.901822 345.529244 C 171.217054 345.525452 167.560064 345.734475 163.953827 346.117132 C 160.336102 346.519379 156.820509 347.094366 153.415507 347.871032 C 150.021992 348.628108 146.7705 349.576621 143.703951 350.686739 C 140.657349 351.806206 137.807177 353.067687 135.213273 354.499227 C 132.599424 355.92142 130.276305 357.4549 128.220941 359.138851 C 126.177064 360.80321 124.45535 362.568617 123.035853 364.425721 C 121.616355 366.282826 120.553483 368.182206 119.844206 370.17239 C 119.12647 372.133636 118.756899 374.108217 118.763899 376.134423 C 118.76244 378.13169 119.120634 380.122702 119.83848 382.107461 C 120.567813 384.072629 121.628395 385.993255 123.043198 387.830159 C 124.446514 389.686653 126.184107 391.450077 128.224543 393.130671 C 130.276466 394.791675 132.602827 396.331563 135.203627 397.750334 C 137.824373 399.178453 140.639774 400.448062 143.721155 401.567616 C 146.78259 402.677821 150.018734 403.620167 153.429586 404.394655 C 156.820493 405.159793 160.346218 405.738376 163.95538 406.131296 C 167.564542 406.524217 171.217251 406.712777 174.90202 406.716569 C 178.586788 406.720361 182.232291 406.530928 185.850015 406.128681 C 189.476198 405.755373 192.983332 405.151447 196.396794 404.40372 C 199.801796 403.627053 203.021855 402.688782 206.099891 401.559074 C 209.166439 400.448956 211.996665 399.178126 214.610514 397.755934 C 217.212877 396.353332 219.547483 394.800261 221.59136 393.135901 C 223.646724 391.451951 225.368438 389.686545 226.776448 387.849031 C 228.175999 385.982578 229.250359 384.063607 229.968095 382.102362 C 230.697318 380.121526 231.046942 378.137596 231.048401 376.140329 Z M 231.048401 376.140329 " stroke="#000000" stroke-width="1.25" stroke-opacity="1" stroke-miterlimit="4"/><path stroke-linecap="butt" transform="matrix(0.230453, -0.196383, 0.226546, 0.0440301, -19.670132, 135.69755)" fill-opacity="1" fill="#ffffff" fill-rule="evenodd" stroke-linejoin="miter" d="M 143.28479 377.222004 C 143.185938 375.805211 143.231944 374.413488 143.435857 373.016318 C 143.659115 371.616712 144.011034 370.258653 144.530303 368.937268 C 145.049572 367.615884 145.719995 366.34765 146.525374 365.149043 C 147.333901 363.964477 148.277385 362.849538 149.323432 361.837179 C 150.388824 360.822384 151.556778 359.910168 152.814246 359.131049 C 154.084764 358.321413 155.428598 357.66135 156.842601 357.136819 C 158.272801 356.595812 159.734481 356.195208 161.230787 355.949049 C 162.746439 355.700454 164.271077 355.580659 165.7948 355.63422 C 167.331572 355.657264 168.844937 355.84206 170.331747 356.174568 C 171.818557 356.507075 173.256319 356.97569 174.645032 357.580412 C 176.033746 358.185133 177.331574 358.916793 178.541664 359.789432 C 179.764803 360.631554 180.874564 361.58901 181.870946 362.6618 C 182.867329 363.734589 183.724692 364.897068 184.459233 366.132759 C 185.193774 367.36845 185.779852 368.651709 186.220615 369.996576 C 186.661378 371.341443 186.95053 372.719838 187.068726 374.134195 C 187.183774 375.534512 187.157113 376.9238 186.956348 378.33501 " stroke="#000000" stroke-width="1.25" stroke-opacity="1" stroke-miterlimit="4"/><path stroke-linecap="butt" transform="matrix(0.121647, -0.230854, 0.30428, -0.0775052, -32.051832, 196.603392)" fill-opacity="1" fill="#000000" fill-rule="evenodd" stroke-linejoin="miter" d="M 194.165961 352.876702 C 195.913872 352.357638 197.664917 352.081237 199.463163 352.017043 C 201.256431 351.967676 203.028681 352.132116 204.78452 352.547031 C 206.525794 352.954933 208.231482 353.569625 209.877064 354.41375 C 211.508079 355.250861 213.054834 356.288548 214.497783 357.534624 C 215.960277 358.772887 217.26568 360.176654 218.462668 361.75214 C 219.640112 363.335439 220.655856 365.047573 221.524466 366.895555 C 222.393076 368.743537 223.085789 370.66184 223.573103 372.687934 C 224.074984 374.721042 224.401336 376.772974 224.527637 378.86637 " stroke="#000000" stroke-width="1.25" stroke-opacity="1" stroke-miterlimit="4"/><path stroke-linecap="butt" transform="matrix(0.127266, 0, 0, 0.127953, 80.746614, 70.960784)" fill-opacity="1" fill="#000000" fill-rule="evenodd" stroke-linejoin="miter" d="M 256.225846 272.836018 L 460.645034 237.39222 L 460.645034 246.917168 L 256.225846 297.320019 Z M 256.225846 272.836018 " stroke="#000000" stroke-width="1.25" stroke-opacity="1" stroke-miterlimit="4"/><path stroke-linecap="butt" transform="matrix(0.127266, 0, 0, 0.127953, 80.746614, 70.960784)" fill-opacity="1" fill="#000000" fill-rule="evenodd" stroke-linejoin="miter" d="M 254.813942 219.685585 L 450.577542 155.514299 L 449.87159 228.935775 L 442.904149 230.370623 L 442.904149 219.685585 L 354.322502 237.422749 L 372.032692 201.978951 Z M 254.813942 219.685585 " stroke="#000000" stroke-width="1.25" stroke-opacity="1" stroke-miterlimit="4"/><path stroke-linecap="butt" transform="matrix(0.160699, -0.0846489, 0.0942278, 0.180593, 68.482622, 80.557553)" fill-opacity="1" fill="#000000" fill-rule="evenodd" stroke-linejoin="miter" d="M 231.054085 376.130419 C 231.045016 374.114571 230.698533 372.135239 229.957434 370.165611 C 229.245351 368.187954 228.175956 366.280746 226.788215 364.418991 C 225.371457 362.565266 223.635523 360.799865 221.599479 359.131725 C 219.534419 357.471615 217.207384 355.926642 214.618375 354.496804 C 212.000349 353.074996 209.167602 351.812104 206.101066 350.699189 C 203.03453 349.586275 199.801357 348.633183 196.391596 347.856882 C 192.990954 347.106485 189.471757 346.516819 185.862192 346.122725 C 182.252627 345.728632 178.590828 345.547986 174.906641 345.529887 C 171.212506 345.528754 167.572252 345.725918 163.956864 346.129408 C 160.332357 346.506994 156.828882 347.092721 153.408306 347.868715 C 150.016745 348.63668 146.766114 349.578852 143.704497 350.69614 C 140.64288 351.813429 137.80924 353.080836 135.203579 354.498364 C 132.597918 355.915891 130.278268 357.467478 128.22556 359.144189 C 126.182801 360.803933 124.445949 362.563804 123.034073 364.432739 C 121.613078 366.27577 120.565972 368.185902 119.844671 370.162227 C 119.12337 372.138552 118.75772 374.130169 118.75767 376.120113 C 118.766739 378.13596 119.132289 380.124229 119.844373 382.101887 C 120.566405 384.062578 121.62585 385.986752 123.042608 387.840478 C 124.440298 389.685266 126.176233 391.450667 128.231344 393.127744 C 130.267388 394.795883 132.594422 396.340857 135.212448 397.762665 C 137.811406 399.175535 140.644153 400.438428 143.70074 401.568309 C 146.767276 402.681224 150.010399 403.617348 153.420159 404.39365 C 156.82992 405.169951 160.339998 405.733713 163.949563 406.127806 C 167.559128 406.5219 171.210978 406.719512 174.905114 406.720645 C 178.59925 406.721777 182.239503 406.524613 185.844943 406.13809 C 189.479399 405.743538 192.982873 405.157811 196.393501 404.398783 C 199.79501 403.613852 203.035692 402.688646 206.097309 401.571358 C 209.158927 400.45407 211.992566 399.186662 214.598227 397.769135 C 217.213837 396.334641 219.552555 394.79199 221.595314 393.132246 C 223.648022 391.455536 225.365806 389.686727 226.767734 387.834759 C 228.188728 385.991728 229.245783 384.06463 229.967085 382.088305 C 230.678437 380.128947 231.044087 378.137329 231.054085 376.130419 Z M 231.054085 376.130419 " stroke="#000000" stroke-width="1.25" stroke-opacity="1" stroke-miterlimit="4"/><path stroke-linecap="butt" transform="matrix(0.24108, -0.226759, 0.236982, 0.050841, 2.726156, 152.133185)" fill-opacity="1" fill="#ffffff" fill-rule="evenodd" stroke-linejoin="miter" d="M 143.28508 377.221357 C 143.17655 375.8153 143.224355 374.415036 143.442525 373.006296 C 143.649677 371.625247 144.016175 370.263413 144.527992 368.935063 C 145.056845 367.605866 145.723008 366.351267 146.523473 365.157845 C 147.337965 363.950152 148.264723 362.859019 149.328791 361.842485 C 150.38985 360.812528 151.549147 359.9134 152.817701 359.11741 C 154.086254 358.321419 155.43601 357.657106 156.849931 357.125316 C 158.263853 356.593527 159.727913 356.208532 161.236094 355.943486 C 162.747283 355.691863 164.27153 355.575307 165.797815 355.62151 C 167.3241 355.667713 168.846405 355.849831 170.333668 356.182982 C 171.82093 356.516132 173.26713 356.973471 174.644215 357.583538 C 176.021299 358.193604 177.323249 358.929554 178.547055 359.777966 C 179.756834 360.640648 180.868424 361.603217 181.864787 362.666521 C 182.861151 363.729825 183.725252 364.894712 184.4651 366.120068 C 185.19092 367.359694 185.77545 368.660637 186.215681 370.009474 C 186.655911 371.358312 186.945824 372.7282 187.068382 374.119987 C 187.193949 375.525197 187.163179 376.924613 186.962046 378.332506 " stroke="#000000" stroke-width="1.25" stroke-opacity="1" stroke-miterlimit="4"/><path stroke-linecap="butt" transform="matrix(0.127251, -0.266565, 0.318305, -0.0894958, -10.22698, 222.457662)" fill-opacity="1" fill="#000000" fill-rule="evenodd" stroke-linejoin="miter" d="M 194.175791 352.86494 C 195.915465 352.353541 197.661515 352.085033 199.457311 352.017534 C 201.248348 351.96421 203.021427 352.138961 204.77655 352.541787 C 206.531672 352.944614 208.227578 353.567466 209.881192 354.403578 C 211.517881 355.246456 213.058853 356.287136 214.499348 357.539793 C 215.944603 358.778275 217.279324 360.171394 218.460142 361.761031 C 219.628794 363.343261 220.667337 365.051137 221.529755 366.890784 C 222.387413 368.744606 223.075813 370.666093 223.585439 372.683594 C 224.095064 374.701095 224.394172 376.778212 224.509206 378.879829 " stroke="#000000" stroke-width="1.25" stroke-opacity="1" stroke-miterlimit="4"/><path stroke-linecap="butt" transform="matrix(0.084044, 0.0971742, -0.0981552, 0.0832427, 151.128566, 48.392356)" fill-opacity="1" fill="#000000" fill-rule="evenodd" stroke-linejoin="miter" d="M 470.604669 478.200342 C 475.0491 481.130294 479.11782 484.733465 482.767974 489.012959 C 486.394939 493.272598 489.483867 498.066467 492.034758 503.394566 C 494.582127 508.679852 496.511321 514.311363 497.775962 520.249386 C 499.040603 526.187409 499.623076 532.217878 499.503713 538.363752 C 499.404017 544.486667 498.627726 550.507819 497.148127 556.364536 C 495.691718 562.24111 493.58043 567.755937 490.860644 572.948729 C 488.137335 578.098708 484.877145 582.749194 481.096219 586.834417 C 477.338482 590.939496 473.154816 594.32171 468.595124 597.063583 " stroke="#000000" stroke-width="1.25" stroke-opacity="1" stroke-miterlimit="4"/><path fill="#ffffff" d="M 144.3125 133.199219 C 144.113281 133.8125 143.847656 134.425781 143.515625 135.042969 C 143.183594 135.664062 142.792969 136.273438 142.335938 136.878906 C 141.882812 137.484375 141.375 138.078125 140.8125 138.65625 C 140.246094 139.234375 139.636719 139.789062 138.980469 140.320312 C 138.320312 140.855469 137.625 141.359375 136.890625 141.832031 C 136.15625 142.308594 135.394531 142.746094 134.605469 143.148438 C 133.816406 143.550781 133.011719 143.910156 132.1875 144.230469 C 131.363281 144.550781 130.53125 144.824219 129.699219 145.050781 " fill-opacity="1" fill-rule="evenodd"/><g clip-path="url(#id4)"><path stroke-linecap="butt" transform="matrix(0.189639, 0.0821691, -0.161055, 0.151855, 131.963578, 16.656064)" fill="none" stroke-linejoin="miter" d="M 491.182827 501.68257 C 492.813028 504.839058 494.203311 508.125367 495.368643 511.559121 C 496.548943 515.010499 497.472646 518.523551 498.141462 522.1488 C 498.824392 525.766412 499.264837 529.438062 499.447832 533.146125 C 499.616713 536.861825 499.540545 540.55578 499.205216 544.235627 C 498.870742 547.940735 498.289508 551.573577 497.447404 555.141788 C 496.620267 558.727624 495.544661 562.190672 494.235554 565.548555 C 492.926447 568.906439 491.396242 572.101001 489.645794 575.157501 C 487.895346 578.214001 485.937057 581.074282 483.799154 583.723071 " stroke="#ffffff" stroke-width="1.25" stroke-opacity="1" stroke-miterlimit="4"/></g><path stroke-linecap="butt" transform="matrix(-0.0757437, -0.103843, 0.104679, -0.0747773, 77.976419, 204.24989)" fill-opacity="1" fill="#000000" fill-rule="evenodd" stroke-linejoin="miter" d="M 470.60295 478.218725 C 475.047446 481.136147 479.106808 484.745121 482.756303 489.027754 C 486.381067 493.292491 489.482914 498.074451 492.044176 503.398167 C 494.598373 508.679455 496.491869 514.303635 497.767062 520.264068 C 499.03519 526.182073 499.607295 532.23083 499.51871 538.361271 C 499.430126 544.491712 498.645529 550.491697 497.16492 556.361226 C 495.684311 562.230755 493.581894 567.762305 490.875335 572.931341 C 488.151109 578.124911 484.896944 582.748445 481.119906 586.844371 C 477.318136 590.922402 473.16662 594.336881 468.615894 597.052019 " stroke="#000000" stroke-width="1.25" stroke-opacity="1" stroke-miterlimit="4"/><path stroke-linecap="butt" transform="matrix(-0.190454, -0.0874639, 0.171695, -0.136718, 98.994027, 232.48922)" fill-opacity="1" fill="#ffffff" fill-rule="evenodd" stroke-linejoin="miter" d="M 491.192476 501.68958 C 492.810047 504.826202 494.209809 508.130737 495.372096 511.558621 C 496.550719 515.004626 497.472204 518.529417 498.152888 522.151115 C 498.833571 525.772813 499.266797 529.438533 499.452566 533.148275 C 499.60899 536.848218 499.540645 540.549097 499.205179 544.249433 C 498.882722 547.941449 498.299495 551.571715 497.455499 555.140234 C 496.62784 558.726873 495.545764 562.190556 494.238615 565.541083 C 492.918459 568.899932 491.395918 572.102538 489.644978 575.165545 C 487.877701 578.210432 485.947065 581.07411 483.794381 583.736983 " stroke="#ffffff" stroke-width="1.25" stroke-opacity="1" stroke-miterlimit="4"/><g fill="#000000" fill-opacity="1"><g transform="translate(37.396389, 73.876331)"><g><path d="M -10.15625 -16.675781 L -7.589844 -21.945312 L -11.28125 -23.746094 L -18.402344 -9.132812 L -14.707031 -7.335938 L -12.140625 -12.605469 L 2.632812 -5.40625 L 4.617188 -9.480469 Z M -10.15625 -16.675781 "/></g></g></g><g fill="#000000" fill-opacity="1"><g transform="translate(44.495228, 58.455716)"><g><path d="M 5.011719 -14.328125 L 1.007812 -11.019531 L -1.648438 -18.3125 Z M 15.929688 -13.160156 L -3.582031 -23.6875 L -6.539062 -21.246094 L 0.117188 -0.0976562 L 3.867188 -3.195312 L 2.371094 -7.328125 L 8.402344 -12.3125 L 12.179688 -10.0625 Z M 15.929688 -13.160156 "/></g></g></g><g fill="#000000" fill-opacity="1"><g transform="translate(61.030132, 45.443312)"><g><path d="M 4.21875 -8.738281 L 4.25 -8.746094 L 10.882812 -2.925781 L 16.425781 -4.417969 L 8.773438 -10.179688 C 11.117188 -11.46875 12.535156 -14.226562 11.632812 -17.582031 C 10.621094 -21.347656 7.0625 -23.175781 3.855469 -22.3125 L 0.789062 -21.488281 L -0.289062 -21.195312 L -3.585938 -20.308594 L 1.75 -0.472656 L 6.125 -1.648438 Z M 4.050781 -18.671875 C 5.335938 -19.015625 6.976562 -18.269531 7.460938 -16.460938 C 7.972656 -14.5625 6.910156 -13.152344 5.628906 -12.808594 L 3.292969 -12.179688 L 1.71875 -18.042969 Z M 4.050781 -18.671875 "/></g></g></g><g fill="#000000" fill-opacity="1"><g transform="translate(77.404176, 40.66167)"><g><path d="M 14.105469 -5.613281 L 8.980469 -6.46875 L 12.742188 -13.253906 Z M 20.382812 3.394531 L 15.535156 -18.238281 L 11.75 -18.871094 L 0.148438 0.0234375 L 4.945312 0.824219 L 7.085938 -3.015625 L 14.804688 -1.730469 L 15.585938 2.59375 Z M 20.382812 3.394531 "/></g></g></g><g fill="#000000" fill-opacity="1"><g transform="translate(97.979377, 44.227398)"><g><path d="M 14.589844 10.449219 L 26.550781 -6.253906 L 22.867188 -8.890625 L 15.410156 1.523438 L 17.121094 -13.007812 L 13.4375 -15.648438 L 1.472656 1.054688 L 5.15625 3.695312 L 12.617188 -6.71875 L 10.90625 7.8125 Z M 14.589844 10.449219 "/></g></g></g><g fill="#000000" fill-opacity="1"><g transform="translate(114.195817, 55.724457)"><g><path d="M 13.066406 7.730469 L 10.609375 3.152344 L 18.277344 1.980469 Z M 9.777344 18.207031 L 23.929688 1.140625 L 22.117188 -2.238281 L 0.0703125 0.132812 L 2.371094 4.417969 L 6.71875 3.765625 L 10.421875 10.660156 L 7.472656 13.921875 Z M 9.777344 18.207031 "/></g></g></g><g fill="#000000" fill-opacity="1"><g transform="translate(29.038866, 102.615485)"><g><path d="M 5.566406 11.515625 L 13.382812 5.675781 L 12.289062 3.417969 L 5.375 4.550781 L 10.554688 -0.171875 L 9.464844 -2.429688 L 0.03125 0.0625 L 1.042969 2.15625 L 7.480469 0.296875 L 2.347656 4.859375 L 3.246094 6.722656 L 10.011719 5.535156 L 4.554688 9.425781 Z M 5.566406 11.515625 "/></g></g></g><g fill="#000000" fill-opacity="1"><g transform="translate(36.742869, 116.909018)"><g><path d="M 11.441406 -1.53125 L 7.296875 2.140625 C 6.304688 3.015625 5.484375 3.214844 4.519531 2.128906 C 3.570312 1.054688 3.855469 0.253906 4.847656 -0.625 L 8.992188 -4.296875 L 7.589844 -5.875 L 3.214844 -2 C 1.304688 -0.308594 1.285156 1.664062 2.941406 3.53125 C 4.59375 5.398438 6.554688 5.617188 8.464844 3.925781 L 12.839844 0.0507812 Z M 11.441406 -1.53125 "/></g></g></g><g fill="#000000" fill-opacity="1"><g transform="translate(45.231617, 125.90583)"><g><path d="M 4.59375 1.40625 C 3.738281 0.804688 3.300781 -0.140625 3.914062 -1.105469 L 2.160156 -2.335938 C 0.828125 -0.417969 1.804688 1.546875 3.535156 2.761719 C 5.136719 3.886719 7.261719 4.367188 8.558594 2.523438 C 10.65625 -0.460938 5.425781 -2.644531 6.40625 -4.039062 C 6.820312 -4.625 7.660156 -4.378906 8.144531 -4.035156 C 9.007812 -3.429688 9.292969 -2.832031 8.8125 -1.949219 L 10.480469 -0.773438 C 11.679688 -2.601562 10.730469 -4.335938 9.117188 -5.46875 C 7.691406 -6.476562 5.65625 -6.769531 4.523438 -5.15625 C 2.488281 -2.261719 7.703125 -0.0585938 6.636719 1.464844 C 6.140625 2.167969 5.132812 1.785156 4.59375 1.40625 Z M 4.59375 1.40625 "/></g></g></g><g fill="#000000" fill-opacity="1"><g transform="translate(55.121799, 132.277346)"><g><path d="M 2.679688 1.25 L 6.730469 -7.429688 L 4.816406 -8.324219 L 0.765625 0.359375 Z M 2.679688 1.25 "/></g></g></g><g fill="#000000" fill-opacity="1"><g transform="translate(61.285666, 135.189217)"><g><path d="M 8.316406 -1.285156 C 7.730469 -0.5625 6.664062 -0.230469 5.707031 -0.46875 C 4.203125 -0.84375 3.316406 -2.425781 3.710938 -4.011719 C 4.101562 -5.585938 5.628906 -6.585938 7.132812 -6.210938 C 8.074219 -5.976562 8.875 -5.226562 9.050781 -4.296875 L 11.335938 -3.730469 C 11.179688 -5.785156 9.726562 -7.597656 7.609375 -8.125 C 4.96875 -8.78125 2.289062 -7.167969 1.632812 -4.53125 C 0.976562 -1.890625 2.589844 0.789062 5.230469 1.445312 C 7.347656 1.972656 9.496094 1.039062 10.601562 -0.71875 Z M 8.316406 -1.285156 "/></g></g></g></svg>